<svg xmlns="http://www.w3.org/2000/svg" xmlns:xlink="http://www.w3.org/1999/xlink" width="30" height="30" viewBox="0 0 30 30"><defs><path id="tvf4a" d="M1552 49c0-8.284 6.716-15 15-15 8.284 0 15 6.716 15 15 0 8.284-6.716 15-15 15-8.284 0-15-6.716-15-15z"/><path id="tvf4b" d="M1581.067 54.215c.603-1.625.933-3.383.933-5.218 0-1.834-.33-3.592-.933-5.217h-28.134a14.968 14.968 0 0 0-.933 5.217c0 1.835.33 3.593.933 5.218L1567 55.519z"/><path id="tvf4c" d="M1566.997 64.003c6.45 0 11.948-4.071 14.067-9.783h-28.134c2.12 5.712 7.618 9.783 14.067 9.783z"/></defs><g><g transform="translate(-1552 -34)"><use fill="#f0f0f0" xlink:href="#tvf4a"/></g><g transform="translate(-1552 -34)"><use fill="#0052b4" xlink:href="#tvf4b"/></g><g transform="translate(-1552 -34)"><use fill="#d80027" xlink:href="#tvf4c"/></g></g></svg>