<svg xmlns="http://www.w3.org/2000/svg" xmlns:xlink="http://www.w3.org/1999/xlink" width="16" height="24" viewBox="0 0 16 24"><defs><path id="trtza" d="M79.193 2344.337h-2.295c-2.146 0-4.293-.003-6.44.004-.224 0-.242-.064-.19-.224.123-.377.489-.607 1.005-.608 1.425-.002 2.85 0 4.275 0h6.727c.164 0 .332-.005.493.02.407.06.659.27.772.616.05.153.008.195-.176.194-1.39-.004-2.78-.002-4.171-.002zm-6.113-2.467c2.539-.002 5.077-.002 7.615.001.462 0 .813.235.934.594.051.152.038.226-.19.225-1.513-.009-3.025-.005-4.537-.005H72.39c-.268 0-.287-.022-.207-.24.127-.346.47-.575.896-.575zm1.907-1.65c1.277-.009 2.554-.008 3.832 0 .433.002.796.267.904.609.052.162.026.23-.194.229-.878-.01-1.755-.004-2.633-.004-.878 0-1.755-.003-2.633.004-.194.001-.24-.044-.19-.21.114-.362.46-.625.913-.628zm2.865-1.002c0 .128-.022.187-.195.183a42.846 42.846 0 0 0-1.513 0c-.144 0-.194-.031-.193-.162.004-1.814.004-3.628 0-5.442 0-.131.049-.164.193-.161.487.007.974.014 1.46-.003.225-.007.25.074.248.233-.006.885-.003 1.769-.003 2.654 0 .9-.003 1.799.003 2.698zm-2.87-7.514c.202.047.398.109.6.153.257.055.506-.064.582-.267.081-.218-.047-.444-.319-.516-.348-.092-.696-.183-1.027-.319-1.791-.736-2.915-2.51-2.647-4.182.29-1.811 1.836-3.244 3.833-3.555 2.766-.431 5.301 1.18 5.644 3.587.289 2.033-1.366 4.033-3.695 4.466-.077.014-.156.023-.228.047-.233.077-.354.288-.288.494.06.191.286.325.52.294a5.36 5.36 0 0 0 .805-.184c.086-.025.167-.08.297-.052-.136.27-.224.552-.423.788-.202.24-.492.353-.832.356a74.84 74.84 0 0 1-1.776.002c-.458-.006-.796-.192-.99-.555-.1-.19-.189-.385-.282-.576.093-.061.158.003.227.019zm8.048 10.915c-.19-.034-.29-.115-.34-.29-.203-.717-.718-1.184-1.562-1.353-.199-.04-.297-.12-.34-.287-.18-.703-.69-1.141-1.479-1.347-.331-.086-.352-.1-.352-.407-.001-1.724.002-3.448-.004-5.173 0-.203.068-.36.245-.495.242-.184.45-.393.575-.658.22-.465.46-.922.684-1.386a1.17 1.17 0 0 1 .34-.418c.257-.202.5-.416.715-.654 1.019-1.127 1.37-2.412 1.163-3.808-.194-1.306-.927-2.375-2.108-3.205-.764-.538-1.61-.935-2.631-.98-.152-.006-.312.012-.46-.038h-1.149c-.044.034-.098.019-.149.023-.387.028-.778.026-1.152.138a5.94 5.94 0 0 0-2.552 1.5c-1.165 1.164-1.565 2.522-1.344 4.02.177 1.198.84 2.194 1.874 3.004.153.12.267.255.342.417.119.258.252.51.377.766.246.503.458 1.025.989 1.379.128.085.134.219.134.35.001 1.754-.001 3.509.004 5.263 0 .21-.098.306-.33.36-.787.183-1.295.621-1.497 1.304-.06.198-.16.298-.402.346-.714.143-1.23.527-1.43 1.127-.115.35-.315.486-.691.581-.747.188-1.14.654-1.191 1.318a.101.101 0 0 1-.026.06v.81c.033.151.138.241.313.27h14.612c.175-.029.28-.119.313-.27v-.81c-.068-.25-.044-.516-.238-.743a2.085 2.085 0 0 0-1.253-.714z"/></defs><g><g transform="translate(-69 -2322)"><use fill="#727cf5" xlink:href="#trtza"/></g></g></svg>