<svg xmlns="http://www.w3.org/2000/svg" xmlns:xlink="http://www.w3.org/1999/xlink" width="8" height="16" viewBox="0 0 8 16"><defs><path id="9ccsa" d="M639.28 1561.505c-.035.258-.095.51-.232.736a.747.747 0 0 1-.53.365c-.124.023-.161-.002-.162-.13a39.367 39.367 0 0 0-.091-2.563c-.017-.25-.155-.377-.367-.36-.204.017-.32.179-.304.42.13 1.905.114 3.809-.057 5.71-.047.522-.127 1.04-.195 1.56-.029.214-.184.302-.377.342-.175.037-.373.064-.525.007-.21-.08-.08-.306-.083-.46-.017-.68-.007-1.362-.007-2.042l-.001-2.334c-.001-.277-.175-.439-.412-.393-.176.034-.266.171-.266.418-.002.985-.002 1.97-.002 2.956 0 .564-.003 1.128.004 1.692.001.13-.03.192-.174.177-.162-.016-.327.015-.49-.03-.195-.054-.307-.169-.34-.377-.326-2.057-.362-4.128-.304-6.203.01-.356.045-.711.061-1.067.011-.245-.162-.408-.39-.37-.192.031-.267.157-.282.342-.067.84-.08 1.683-.09 2.525 0 .172-.046.214-.21.172a.773.773 0 0 1-.52-.438c-.152-.31-.203-.644-.223-.98a9.266 9.266 0 0 1 .071-1.958c.093-.61.476-1.007 1.028-1.259.404-.184.833-.27 1.273-.306.271-.021.41-.094.438-.28.042-.284.033-.444-.222-.6-.924-.566-1.076-1.898-.318-2.67.643-.654 1.656-.574 2.206.174.602.82.379 1.98-.494 2.513-.228.139-.244.31-.19.595.038.206.212.255.405.266.375.02.742.087 1.097.21.748.255 1.196.752 1.263 1.545.058.698.104 1.397.011 2.095zm.665-2.09c-.064-.787-.384-1.43-1.072-1.868-.415-.263-.876-.401-1.363-.492.004-.028.002-.036.006-.04l.061-.074c.652-.764.792-1.625.432-2.543-.551-1.408-2.22-1.84-3.362-.892-.743.617-1.019 1.727-.668 2.68.12.325.316.604.556.863-.203.05-.39.087-.569.143-.928.293-1.639.829-1.823 1.819-.174.939-.2 1.896-.016 2.84.153.784.56 1.353 1.443 1.432.125.012.106.087.108.162a32.14 32.14 0 0 0 .311 3.793c.096.693.636 1.021 1.176 1.028.57.008 1.142.01 1.713 0 .604-.009 1.05-.395 1.136-.956a27.39 27.39 0 0 0 .32-3.81c.002-.169.055-.217.215-.233.603-.062.987-.41 1.211-.948.15-.357.208-.735.227-1.117.03-.596.007-1.192-.042-1.786z"/></defs><g><g transform="translate(-632 -1553)"><use fill="#727cf5" xlink:href="#9ccsa"/></g></g></svg>