<svg xmlns="http://www.w3.org/2000/svg" xmlns:xlink="http://www.w3.org/1999/xlink" width="15" height="26" viewBox="0 0 15 26"><defs><path id="7deka" d="M82.168 2369.006c-.061.424-.17.838-.417 1.212-.218.33-.53.528-.955.6-.221.037-.29-.004-.29-.212a59.27 59.27 0 0 0-.164-4.223c-.03-.412-.279-.62-.661-.591-.367.027-.577.294-.547.692.235 3.136.205 6.27-.103 9.4-.085.86-.228 1.715-.351 2.571-.051.352-.33.497-.678.563-.316.06-.672.105-.946.01-.379-.131-.142-.504-.15-.758-.03-1.12-.012-2.241-.013-3.362 0-1.28.002-2.561-.001-3.842-.002-.456-.315-.723-.74-.648-.318.056-.48.282-.481.689-.002 1.622-.002 3.245-.003 4.867 0 .929-.005 1.857.007 2.786.002.214-.053.316-.312.293-.293-.027-.59.024-.882-.05-.353-.09-.554-.278-.613-.62-.587-3.388-.653-6.799-.547-10.216.018-.586.08-1.171.11-1.757.02-.404-.293-.671-.704-.61-.344.052-.48.26-.507.564-.121 1.384-.145 2.772-.16 4.159-.004.282-.085.35-.38.281a1.366 1.366 0 0 1-.936-.72c-.274-.51-.366-1.06-.402-1.613-.07-1.077-.05-2.157.128-3.225.168-1.004.857-1.658 1.85-2.073.728-.304 1.5-.446 2.293-.504.488-.035.74-.154.789-.46.075-.47.06-.732-.401-.99-1.663-.932-1.937-3.125-.572-4.395a2.716 2.716 0 0 1 3.971.285c1.086 1.35.683 3.261-.89 4.138-.41.23-.438.512-.342.981.07.338.384.42.732.437a7.944 7.944 0 0 1 1.975.345c1.345.421 2.152 1.24 2.272 2.545.106 1.15.188 2.3.021 3.45zm1.199-3.441c-.116-1.297-.69-2.357-1.931-3.077-.746-.433-1.576-.66-2.454-.81.007-.046.005-.06.011-.066.036-.042.073-.083.11-.123 1.174-1.258 1.426-2.675.778-4.188-.993-2.317-3.997-3.028-6.053-1.468-1.338 1.017-1.834 2.844-1.202 4.413.216.535.568.994 1 1.422-.366.083-.7.142-1.024.235-1.67.482-2.95 1.365-3.282 2.995-.314 1.547-.362 3.123-.03 4.678.275 1.29 1.009 2.227 2.598 2.358.225.018.192.143.195.266.043 2.093.247 4.17.56 6.245.173 1.142 1.145 1.682 2.117 1.694 1.028.013 2.056.016 3.084 0 1.089-.015 1.89-.65 2.045-1.575.35-2.08.547-4.171.577-6.274.004-.278.099-.356.387-.383 1.087-.102 1.777-.676 2.181-1.56.269-.59.374-1.211.408-1.84a20.51 20.51 0 0 0-.075-2.942z"/></defs><g><g transform="translate(-69 -2355)"><use fill="#727cf5" xlink:href="#7deka"/></g></g></svg>